<svg preserveAspectRatio="none" overflow="visible" style="display: block;" width="20" height="20" viewBox="0 0 20 20" fill="none" xmlns="http://www.w3.org/2000/svg">
<g id="Frame" clip-path="url(#clip0_0_55)">
<path id="Vector" d="M18.1444 9.0786V4.62477C18.1444 3.64286 17.3455 2.84399 16.3636 2.84399H3.63641C2.65449 2.84399 1.85563 3.64286 1.85563 4.62477V9.0786C0.787031 9.37442 0 10.3549 0 11.5163V14.9004C0 15.2283 0.265859 15.4941 0.59375 15.4941H1.85563V16.5623C1.85563 16.8902 2.12148 17.156 2.44937 17.156C2.77727 17.156 3.04313 16.8902 3.04313 16.5623V15.4941H16.9569V16.5623C16.9569 16.8902 17.2227 17.156 17.5506 17.156C17.8785 17.156 18.1444 16.8902 18.1444 16.5623V15.4941H19.4062C19.7341 15.4941 20 15.2283 20 14.9004V11.5163C20 10.3549 19.2129 9.37442 18.1444 9.0786ZM3.04313 4.62477C3.04313 4.29766 3.3093 4.03149 3.63641 4.03149H16.3636C16.6907 4.03149 16.9569 4.29766 16.9569 4.62477V8.98673H15.5657V7.79489C15.5657 6.75852 14.7226 5.9154 13.6862 5.9154H11.2858C10.7887 5.9154 10.3365 6.10966 10 6.42587C9.66359 6.1097 9.21133 5.9154 8.7143 5.9154H6.31387C5.2775 5.9154 4.43437 6.75856 4.43437 7.79489V8.98673H3.04313V4.62477ZM14.3782 7.79489V8.98673H10.5938V7.79489C10.5938 7.41329 10.9042 7.1029 11.2857 7.1029H13.6862C14.0678 7.1029 14.3782 7.41333 14.3782 7.79489ZM9.40621 7.79489V8.98673H5.62176V7.79489C5.62176 7.41329 5.93223 7.1029 6.31375 7.1029H8.71418C9.09578 7.1029 9.40621 7.41333 9.40621 7.79489ZM18.8125 14.3066H1.1875V11.5163C1.1875 10.7763 1.78953 10.1742 2.52957 10.1742H17.4704C18.2104 10.1742 18.8125 10.7763 18.8125 11.5163V14.3066Z" fill="#3B4126"/>
</g>
<defs>
<clipPath id="clip0_0_55">
<rect width="20" height="20" fill="white"/>
</clipPath>
</defs>
</svg>
