<svg width="101" height="127" viewBox="0 0 101 127" fill="none" xmlns="http://www.w3.org/2000/svg">
<path d="M50.382 81.6819C50.7608 81.6819 54.0439 78.0108 55.6854 75.8588C59.5998 70.5421 61.115 66.7445 61.3676 62.0607C61.3676 60.1619 61.2413 58.6428 60.9887 57.3769C60.8625 56.6174 60.7362 55.8579 60.7362 55.4781V55.3515C60.7362 55.3515 61.115 55.8579 61.4938 56.6174C62.8828 59.4024 68.0599 62.8202 70.9641 62.8202C71.2167 62.8202 71.3429 62.6937 71.5955 62.0607C72.3531 58.7694 72.4794 54.8452 69.954 50.0348C69.1963 48.6424 68.8175 47.5031 68.8175 47.5031C68.9438 47.5031 69.4489 48.0094 69.954 48.5158C72.7319 51.4273 77.5302 53.5793 82.076 54.2122L83.5912 54.3388C83.5912 51.6805 80.5607 47.2499 79.8031 46.4904C79.9294 46.617 80.8132 46.9967 81.8234 47.5031C84.4751 48.769 87.6319 49.4019 89.9047 49.4019C90.7886 49.4019 91.5463 49.4019 92.0513 49.1487C92.5564 49.0221 92.6827 48.8955 92.6827 48.136C92.4301 44.2118 90.9149 40.161 89.6522 38.6419C88.8946 37.8824 89.3997 38.009 91.5463 39.4014C93.8191 40.9205 95.3344 41.4268 95.5869 41.0471C95.7132 40.7939 95.8395 39.528 95.8395 38.009C95.8395 35.857 95.5869 34.8443 95.0818 33.1986C93.8191 29.2744 91.6725 26.7426 88.642 25.2236L87.1268 24.464L88.7683 24.3374C93.0615 23.8311 95.2081 22.8184 98.3649 19.6537C99.5013 18.5144 100.511 17.2485 100.511 17.1219C100.511 16.489 97.1022 15.3497 94.703 15.0965C94.0717 14.9699 93.314 14.9699 92.5564 14.9699C91.9251 14.9699 91.42 14.9699 91.0412 15.0965C89.3997 15.2231 85.7378 16.3624 84.3488 17.1219C83.3387 17.6283 82.3285 18.008 82.3285 17.8814C82.3285 17.7548 83.3387 16.9953 84.6014 15.9826C91.0412 11.2989 93.4403 7.75438 93.9454 2.43768L94.1979 0.412267L92.1776 0.538856C86.8742 1.04521 80.9395 4.08333 76.7726 8.6405L75.3836 10.2861L76.015 8.6405C76.7726 6.74168 77.1514 5.09603 77.1514 3.45038C77.1514 2.81744 76.7726 0.538856 76.3938 0.159091C76.015 -0.220673 73.1107 0.665444 69.7014 2.31109C64.3981 4.96944 61.3676 9.02026 60.3574 10.9191C59.726 11.9318 59.4735 12.3116 59.3472 12.3116V11.6786C59.5998 10.6659 59.5998 10.6659 58.9684 10.9191C55.4328 11.9318 52.5286 15.0965 51.0134 19.4005C50.7608 20.5398 50.382 21.6791 50.382 21.9323C50.382 22.1854 50.1295 21.5525 49.7507 20.4132C48.2354 15.3497 45.0786 11.6786 41.6693 10.9191C41.038 10.7925 40.9117 10.7925 41.1642 11.1723C41.4168 11.9318 41.5431 12.3116 41.4168 12.3116C41.2905 12.3116 40.7854 11.8052 40.1541 10.6659C38.1338 7.24803 34.977 4.20991 31.4414 2.43768C28.6634 1.04521 25.1279 -0.220673 24.6228 0.0325029C24.1177 0.285679 23.6126 2.31109 23.6126 3.95674C23.6126 4.71627 23.9914 6.23532 24.4965 7.75438L25.3804 10.2861L22.9813 8.00756C20.3296 5.22262 17.4254 3.3238 14.5211 2.1845C12.2483 1.29838 8.83895 0.538856 7.19743 0.538856H6.06099L6.31353 2.1845C6.56608 4.71627 7.44997 6.99485 8.83895 9.14685C10.2279 11.2989 11.7432 12.8179 15.5313 15.6028C17.0465 16.7421 17.8042 17.3751 17.8042 17.6283H17.6779C17.5516 17.6283 17.2991 17.6283 16.9203 17.3751C15.6576 16.6156 11.1118 15.3497 9.4703 15.2231C7.44997 14.9699 4.67202 15.3497 2.39914 16.2358C1.38898 16.6156 0.505083 16.9953 0.505083 17.1219L1.38898 18.5144C4.04066 22.0588 7.3237 23.8311 12.122 24.3374L13.6372 24.464L11.9957 25.3501C7.57624 27.5021 5.05083 32.1859 5.05083 38.2621V40.9205C7.19743 40.5407 8.71268 39.528 11.2381 38.2621C9.21776 42.313 8.08132 44.2118 8.08132 48.0094C8.08132 48.5158 8.33387 49.0221 8.33387 49.0221C8.58641 49.2753 9.97539 49.4019 11.4906 49.4019C14.016 49.4019 16.0364 48.8955 18.5618 47.7562L20.8347 46.617L19.6982 47.8828C18.4355 49.6551 17.1728 52.3134 17.1728 54.2122C23.2338 53.5793 26.2643 52.3134 30.305 48.769C31.1889 48.136 31.9465 47.5031 31.9465 47.6297L30.5575 50.5412C29.1685 53.3261 28.5372 55.8579 28.5372 58.0099C28.5372 59.0226 28.7897 61.6809 29.2948 62.4405C29.5473 63.0734 29.5473 63.0734 30.81 62.6937C33.7143 61.9341 37.3761 59.2758 39.0176 56.744C39.5227 55.8579 40.0278 55.0984 40.1541 55.0984C40.1541 55.2249 40.0278 55.9845 39.7753 56.9972C39.5227 58.1365 39.3965 59.6555 39.3965 61.048C39.3965 62.6937 39.5227 64.3393 39.9015 65.7318C41.038 69.9092 44.6998 75.9854 48.6142 80.0362C49.4981 80.9224 50.2557 81.6819 50.382 81.6819ZM26.5168 110.544C26.6431 110.164 24.4965 103.582 24.1177 103.328C23.7389 103.075 17.8042 95.1002 16.4152 92.9482L15.1525 90.9228L14.8999 92.1887C14.3949 94.8471 15.6576 99.9106 17.9304 103.328C19.4457 105.607 22.9813 109.025 25.0016 110.164C25.633 110.544 26.0118 110.797 26.2643 110.797C26.3906 110.797 26.5168 110.671 26.5168 110.544ZM10.733 92.9482C10.9856 92.9482 12.2483 90.5431 13.1322 88.2645C14.1423 85.6061 14.7737 82.3148 14.7737 79.4033C14.7737 77.3779 14.6474 77.1247 13.6372 75.0993C13.1322 73.96 12.3745 72.1878 12.122 71.1751C11.8694 70.1624 11.6169 69.2762 11.4906 69.2762C11.2381 69.4028 7.3237 75.0993 6.81862 76.3652C6.06099 78.0108 5.68218 79.6565 5.68218 81.4287C5.68218 84.5934 6.94489 88.0113 9.4703 91.4292C10.1017 92.3153 10.6067 92.9482 10.733 92.9482ZM38.6388 118.266C38.7651 118.266 37.8812 113.076 38.3863 110.038C39.0176 106.62 39.649 104.974 40.4066 102.569L38.3863 99.5308C37.2499 97.8852 35.7346 95.2268 34.8507 93.4546C34.0931 91.6823 33.3355 90.2899 33.2092 90.2899C33.2092 90.2899 32.5778 91.4292 31.9465 92.9482C31.1889 94.3407 29.7999 96.8725 28.7897 98.3915L26.8957 101.43L27.2745 102.949C28.2846 107.379 32.199 113.076 36.6185 116.62L38.6388 118.266ZM50.5083 126.621C50.8871 126.621 54.8015 122.57 56.0642 120.798C58.4633 117.633 59.4735 114.975 59.4735 111.05C59.4735 109.911 59.0947 104.468 58.0845 104.468C57.5794 104.468 57.0744 104.974 55.9379 105.734C52.4023 108.265 51.6447 109.025 50.8871 110.417L50.2557 111.81C49.4981 109.911 49.2456 109.405 47.8566 108.012C46.3413 106.367 42.932 103.961 42.8058 104.215C42.0481 105.48 41.4168 109.278 41.4168 110.924C41.4168 115.481 43.6897 119.912 48.2354 124.595C49.2456 125.735 50.2557 126.621 50.5083 126.621ZM24.1177 98.6447C24.3702 98.6447 27.0219 95.8598 27.9058 94.4673C28.7897 93.0748 30.305 89.7835 30.305 88.8974C30.4312 88.5176 29.6736 87.1252 28.916 85.7327C26.5168 81.6819 25.8855 80.0362 24.7491 73.96L24.4965 72.8207L22.4762 74.4664C21.466 75.3525 19.9508 76.4918 19.1931 76.9981C17.8042 77.8842 17.5516 78.5172 17.2991 82.1882C16.794 86.9986 19.0669 93.0748 22.7287 97.2522C23.3601 98.0118 23.9914 98.6447 24.1177 98.6447ZM3.15677 76.112C4.04066 75.2259 8.58641 68.8965 9.84911 66.7445C11.6169 63.8329 12.3745 61.3012 13.1322 56.8706L13.7635 53.0729C13.8898 52.8198 13.7635 52.6932 13.6372 52.6932C13.2584 52.6932 9.72284 56.1111 8.46014 57.6301L7.44997 59.0226L7.57624 57.5035C7.70251 56.744 8.2076 55.0984 8.58641 53.8325C8.96522 52.6932 9.34403 51.6805 9.21776 51.6805C8.96522 51.3007 6.18726 53.3261 4.41947 55.0984C1.26271 58.3897 0 61.5544 0 65.9849C0 69.0231 0.505083 71.1751 1.89406 74.0866C2.52541 75.4791 3.15677 76.112 3.15677 76.112ZM16.6677 74.4664C16.794 74.4664 17.5516 73.96 18.3093 73.4536C20.4559 72.1878 23.8652 68.7699 25.3804 66.6179L26.6431 64.7191L26.0118 62.4405C25.633 60.9214 25.5067 59.4024 25.5067 57.5035V54.8452C22.7287 56.1111 21.466 56.2377 18.8143 57.2504C14.6474 58.7694 14.1423 63.4532 14.1423 65.7318C14.1423 68.7699 14.8999 72.0612 16.0364 73.8334C16.2889 74.2132 16.5415 74.4664 16.6677 74.4664ZM32.4516 85.4795C32.9567 85.4795 36.1134 82.4414 37.2499 80.7958C38.5126 79.1501 40.1541 75.2259 40.1541 74.3398C40.1541 74.0866 39.7753 72.8207 39.1439 71.4282C38.5126 70.0358 37.7549 67.7572 37.5024 66.3647C37.1236 64.5925 36.9973 64.2127 36.7448 64.2127C36.6185 64.2127 36.4922 64.2127 36.366 64.3393C34.0931 65.8584 32.5778 66.6179 30.6838 67.1242C25.7592 68.7699 27.6533 76.4918 28.6634 78.8969C29.0423 80.1628 30.0524 82.0616 30.81 83.3275C31.6939 84.4668 32.3253 85.4795 32.4516 85.4795ZM53.2862 103.961C53.4125 103.961 54.5489 103.328 55.6854 102.569C59.5998 100.037 63.0091 95.8598 64.7769 91.5558C65.282 90.2899 65.6608 89.1506 65.6608 88.8974C65.6608 88.6442 64.7769 87.5049 63.893 86.6188C61.9989 84.72 59.8523 81.6819 58.9684 79.4033C58.5896 78.6438 58.2108 77.8842 58.0845 78.0108C57.4532 78.264 51.8973 85.2264 51.1396 86.7454L50.2557 88.5176L49.8769 87.2518C49.2456 85.7327 48.1091 84.0871 45.71 81.3021L43.1846 78.264C42.932 77.8842 42.5532 77.6311 42.5532 77.6311C42.427 77.7576 42.1744 78.5172 41.7956 79.2767C40.7854 81.5553 39.2702 83.7073 37.5024 85.6061L35.8609 87.3783L36.366 89.024C37.2499 92.6951 39.5227 96.4927 42.6795 99.9106C44.0685 101.43 46.8464 103.708 47.2252 103.708C48.4879 103.708 50.382 95.6066 50.6345 95.6066C50.8871 95.6066 51.5184 99.4042 52.4023 102.063C52.7812 103.075 53.2862 103.961 53.2862 103.961ZM62.1252 117.506C61.7464 118.266 62.1252 118.013 63.893 116.62C66.0396 114.975 68.8175 111.936 70.3328 109.784C71.848 107.506 73.4895 103.961 73.6158 102.316C73.8684 99.4042 69.3226 92.4419 68.0599 91.3026C66.7972 94.7205 65.9133 96.9991 62.1252 101.176L60.4837 102.949L61.2413 104.974C62.2515 108.265 62.504 110.164 62.3777 113.709C62.3777 115.481 62.1252 117.253 62.1252 117.506ZM73.9946 110.797C73.9946 111.43 76.8989 109.531 79.1717 107.379C83.2124 103.708 85.4853 99.1511 85.7378 94.4673C85.7378 93.2014 85.7378 92.0621 85.6115 91.8089C85.6115 91.8089 84.7276 92.5685 83.5912 94.2141C82.581 95.7332 80.5607 98.5181 79.0455 100.417C77.4039 102.442 76.1412 104.215 76.1412 104.341L75.0048 107.506L73.9946 110.797ZM77.0251 98.8979C77.2777 98.8979 79.1717 96.4927 80.0556 94.9736C81.0658 93.4546 82.4548 90.1633 82.9598 88.1379C83.2124 86.872 83.4649 84.9732 83.4649 83.2009C83.4649 81.6819 83.3387 80.2894 83.0861 79.2767L82.7073 77.6311L76.7726 73.2005L75.8887 72.5675L75.7624 74.3398C75.3836 78.6438 74.1209 82.0616 71.7218 86.2391C71.0904 87.3783 70.459 88.5176 70.459 88.8974C70.459 90.6696 72.9845 94.9736 75.2573 97.3788C76.1412 98.1383 76.8989 98.8979 77.0251 98.8979ZM68.4387 85.6061C69.5752 84.72 72.7319 79.2767 72.7319 73.0739C72.7319 65.8584 68.0599 66.6179 63.7667 64.2127C64.0192 63.9595 60.6099 73.4536 60.6099 74.5929C60.6099 77.5045 67.3023 85.6061 68.4387 85.6061ZM30.9363 44.5915C23.3601 44.5915 16.9203 38.1355 16.9203 30.5403C16.9203 22.945 23.3601 17.5017 30.5575 17.5017C36.9973 17.5017 44.6998 21.8057 44.6998 31.8061C44.6998 38.1355 38.26 44.5915 30.9363 44.5915ZM23.7389 30.7934C23.7389 34.7177 27.0219 38.2621 31.1889 38.2621C35.7346 38.2621 38.7651 34.8443 38.7651 30.7934C38.7651 26.8692 35.7346 23.5779 31.4414 23.5779C27.0219 23.5779 23.7389 26.8692 23.7389 30.7934ZM50.2557 55.6047C49.2456 55.6047 44.8261 44.5915 44.8261 42.9459C44.8261 41.0471 46.5939 38.8951 48.1091 38.8951C48.993 38.8951 48.993 37.8824 48.2354 36.7431C47.8566 36.3633 47.7303 35.9835 47.7303 35.857C48.6142 35.224 49.7507 34.9708 50.6345 34.9708C51.2659 34.9708 51.771 35.0974 52.2761 35.3506C53.0337 35.857 53.0337 35.857 52.5286 36.6165L51.8973 38.1355C51.771 38.7685 51.771 38.8951 52.7812 39.0217C54.8015 39.4014 55.8116 40.9205 55.8116 43.0725C55.8116 46.8701 53.665 50.4146 50.2557 55.6047ZM26.0118 17.1219C23.3601 17.1219 20.8347 14.7167 18.4355 11.0457H19.1931C21.7186 11.0457 25.633 13.9572 26.3906 16.6156C26.5168 17.1219 26.5168 17.1219 26.0118 17.1219ZM89.1471 92.0621C89.5259 92.6951 89.6522 93.0748 90.031 93.0748C90.2835 93.0748 90.6624 92.5685 91.5463 91.4292C93.9454 88.1379 94.9556 85.4795 94.9556 82.3148C94.9556 78.3906 93.9454 75.7322 90.7886 71.808L88.8946 69.2762L88.5158 70.9219C88.3895 71.808 87.6319 73.7068 87.0005 75.0993L85.7378 77.7576L86.1166 81.0489C86.4954 86.6188 87.0005 88.2645 89.1471 92.0621ZM82.3285 73.3271C83.0861 73.8334 83.5912 74.0866 83.97 74.0866C84.6014 74.0866 84.8539 73.4536 85.359 71.808C86.1166 69.9092 86.3692 68.0104 86.3692 65.8584C86.3692 63.9595 86.1166 61.9341 85.4853 59.7821L84.8539 57.8833L83.3387 57.5035C80.8132 56.9972 78.1616 56.1111 76.6463 55.3515L75.0048 54.592V57.3769C75.0048 59.5289 74.8785 60.9214 74.4997 62.3139L73.9946 64.4659L74.626 65.7318C75.6361 67.504 80.1819 71.9346 82.3285 73.3271ZM37.7549 17.6283C37.5024 17.7548 32.9567 15.7294 31.6939 13.704C30.9363 12.6913 30.0524 10.4127 30.0524 9.65321C30.0524 8.76709 32.9567 10.7925 34.4719 12.185C36.1134 13.704 36.9973 14.9699 37.5024 16.489C37.7549 16.9953 37.7549 17.5017 37.7549 17.6283ZM97.8598 75.9854C99.7539 73.3271 100.89 69.656 100.89 66.3647C100.89 61.5544 99.6276 58.3897 96.092 54.9718C94.3242 53.1995 92.3039 51.5539 91.5463 51.5539C91.5463 51.5539 91.7988 52.6932 92.3039 54.0857C92.6827 55.3515 93.0615 56.9972 93.1878 57.7567L93.314 59.0226L92.4301 57.8833C90.7886 55.8579 88.2632 53.4527 87.6319 53.0729C86.8742 52.6932 86.8742 52.6932 87.0005 53.1995L87.3793 55.8579C87.8844 59.2758 88.8946 63.3266 89.7785 65.0988C90.9149 67.504 93.0615 70.7953 95.5869 73.8334C96.8496 75.4791 97.481 75.9854 97.7335 75.9854H97.8598ZM69.1963 44.465C62.6303 44.465 55.8116 38.7685 55.8116 30.7934C55.8116 22.8184 61.7464 17.6283 69.7014 17.6283C77.2777 17.6283 83.7175 22.945 83.7175 30.92C83.7175 39.9078 77.909 44.465 69.1963 44.465ZM61.8726 30.92C61.8726 34.8443 64.3981 38.2621 69.5752 38.2621C73.8684 38.2621 77.0251 34.8443 77.0251 30.92C77.0251 26.7426 73.7421 23.5779 69.7014 23.5779C64.3981 23.5779 61.8726 26.7426 61.8726 30.92ZM62.8828 17.7548C62.6303 17.7548 63.0091 16.3624 63.7667 14.9699C64.6506 13.1977 66.7972 11.0457 68.6913 10.033L70.0802 9.40003C70.5853 13.3243 63.7667 17.7548 62.8828 17.7548ZM80.9395 12.8179C78.5404 16.6156 74.3734 17.2485 74.4997 17.2485C74.2472 17.2485 74.1209 17.1219 74.1209 16.8687V16.6156C75.1311 13.704 78.2878 10.9191 81.6971 10.9191C81.9497 10.9191 82.076 10.9191 82.076 11.0457C82.076 11.0457 81.5709 11.9318 80.9395 12.8179Z" fill="#EFEED5"/>
</svg>
