<svg width="266" height="45" viewBox="0 0 266 45" fill="none" xmlns="http://www.w3.org/2000/svg">
<path d="M16.0118 2.37087V9.48347H11.4512L6.88149 9.49277L0 16.5496V28.4969L6.88149 35.6095H20.6445L22.9383 33.2386V2.37087L20.6445 0H18.3057L16.0118 2.37087ZM16.0118 17.8884V27.186L14.8964 28.3574H8.05989L6.92647 27.2045V17.814L8.0419 16.6426H14.7885L16.0118 17.8884Z" fill="#090909"/>
<path d="M142.127 2.37087L142.136 33.2386L144.448 35.5165H158.274L165.156 28.4039V16.5961L158.229 9.43698L149.144 9.3812V2.37087L146.85 3.59521e-07H144.421L142.127 2.37087ZM158.139 17.7955V27.186L157.024 28.3574H150.277L149.144 27.2045V17.7211L150.169 16.6426H157.006L158.139 17.7955Z" fill="#090909"/>
<path d="M81.3185 2.46384V4.8812L83.6123 7.25207H85.9511L88.245 4.8812V2.46384L85.9511 0.0929763H83.6123L81.3185 2.46384Z" fill="#090909"/>
<path d="M260.327 2.93802C259.05 3.29132 257.907 4.23967 257.368 5.41116C256.594 7.10331 256.891 9.11157 258.132 10.4969C258.924 11.3895 260.291 11.9938 261.497 11.9938C263.458 11.9938 265.203 10.72 265.805 8.86054C266.057 8.08884 266.066 6.7593 265.823 5.95971C265.374 4.47211 264.141 3.29132 262.648 2.92872C261.937 2.76136 260.975 2.76136 260.327 2.93802ZM262.9 4.1374C264.969 5.17872 265.464 8.07025 263.871 9.84608C263.197 10.6085 262.513 10.9153 261.542 10.906C260.183 10.906 259.104 10.1994 258.51 8.94422C258.231 8.36777 258.213 8.2562 258.213 7.39153C258.213 6.57335 258.24 6.39669 258.456 5.92252C259.122 4.46281 260.174 3.77479 261.64 3.83988C262.216 3.86777 262.477 3.92355 262.9 4.1374Z" fill="#090909"/>
<path d="M260.084 5.08574L259.787 5.12293V9.7624H260.867V7.99587H261.263C261.811 7.99587 262 8.19112 262.243 9.0186L262.45 9.71591L263.062 9.7438C263.628 9.7717 263.673 9.7531 263.619 9.60434C263.583 9.51136 263.494 9.15806 263.413 8.82335C263.26 8.10744 263.008 7.62397 262.747 7.55889C262.585 7.5124 262.594 7.48451 262.855 7.36364C263.673 6.94525 263.655 5.69938 262.819 5.23451C262.594 5.11364 262.279 5.06715 261.452 5.05785C260.858 5.04855 260.237 5.05785 260.084 5.08574ZM261.847 5.95971C262.225 6.09917 262.369 6.44318 262.171 6.75C262.036 6.97314 261.551 7.15909 261.119 7.15909C260.867 7.15909 260.867 7.14979 260.867 6.57335C260.867 6.24793 260.894 5.95041 260.93 5.92252C261.02 5.82025 261.533 5.84814 261.847 5.95971Z" fill="#090909"/>
<path d="M33.4179 9.3626L32.4285 9.39979L28.9922 12.9514L25.547 16.5031V28.311L28.9922 31.8626L32.4285 35.4236H39.3459L46.2634 35.4328L47.4238 34.2428L48.5752 33.0527V30.6818L47.3878 29.4731L46.1914 28.2738L39.8946 28.2645H33.5889L32.5184 27.1395L33.0761 26.5909L33.6248 26.0331H46.2814L48.5752 23.6622V16.5031L41.6038 9.29752L38.0056 9.31612C36.0266 9.32541 33.9667 9.35331 33.4179 9.3626ZM40.9921 17.0702L41.5678 17.6002L40.4434 18.781H33.5889L32.5274 17.6653L33.5889 16.5496H40.4164L40.9921 17.0702Z" fill="#090909"/>
<path d="M117.642 10.4783L116.491 11.6684V33.1457L118.784 35.5165H121.123L123.417 33.1457V19.0134L124.55 17.7769L125.684 16.5496H130.209L132.502 18.9205V33.1457L134.796 35.5165H137.225L139.519 33.1457V16.5031L136.083 12.9514L132.637 9.39979L125.711 9.33471L118.784 9.27893L117.642 10.4783Z" fill="#090909"/>
<path d="M220.37 10.4876L219.218 11.7056V33.1457L221.512 35.5165H223.941L226.235 33.1457V18.9205L228.528 16.5496H233.026L235.32 18.9205V33.1457L237.614 35.5165H240.042L242.246 33.2386V18.9205L244.54 16.5496H249.038L251.332 18.9205V33.1457L253.626 35.5165H256.054L258.348 33.1457V16.5031L251.377 9.29752H242.291L238.774 12.9329L237.074 11.1477L235.383 9.36261L221.512 9.26963L220.37 10.4876Z" fill="#090909"/>
<path d="M59.9544 9.45558L57.9754 9.48347L54.5841 12.9979L51.1839 16.5031V23.7552L52.2903 24.8802L53.3878 26.0145L66.0623 26.126L66.611 26.6839L67.1507 27.2417L66.611 27.7996L66.0803 28.3574H53.4777L51.1839 30.7283V33.1457L53.4777 35.5165H67.2407L74.1222 28.4039V21.2448L71.8283 18.874H59.2887L58.695 18.2975L58.1013 17.7304L59.2258 16.5496H71.8283L72.9798 15.3781L74.1222 14.2066V11.7614L71.8283 9.3905L66.8809 9.40909C64.1553 9.42769 61.0428 9.44628 59.9544 9.45558Z" fill="#090909"/>
<path d="M90.8536 16.5961V28.4969L97.7351 35.6095H105.849L106.317 36.1116C106.569 36.3905 106.776 36.6508 106.776 36.6973C106.776 36.7345 106.542 37.0041 106.263 37.3017L105.75 37.8409H93.1475L90.8536 40.2118V42.7221L93.0575 45H107L113.882 37.8874V16.5961L107 9.48347H97.7351L90.8536 16.5961ZM106.865 17.7955V27.186L105.75 28.3574H98.9135L97.8701 27.2975V17.814L98.9855 16.6426H105.732L106.865 17.7955Z" fill="#090909"/>
<path d="M167.764 16.5961V28.5062L174.583 35.5165H183.974L190.883 28.5248V16.5961L184.001 9.48347H174.646L167.764 16.5961ZM183.866 17.8884V27.2789L182.751 28.4504H175.914L174.781 27.2975V17.8141L175.896 16.6426H182.643L183.866 17.8884Z" fill="#090909"/>
<path d="M193.491 16.5961V28.5248L196.927 32.0207L200.355 35.5165H209.728L213.173 32.0207L216.609 28.5248V16.5961L209.728 9.48347H200.373L193.491 16.5961ZM209.593 17.7955V27.2789L208.478 28.4504H201.641L200.508 27.2975V17.8141L201.623 16.6426H208.46L209.593 17.7955Z" fill="#090909"/>
<path d="M76.7308 11.9473V14.3647L79.0247 16.7355H81.3185V33.2386L83.6123 35.6095H85.9511L88.245 33.2386V11.9473L85.9511 9.57645H79.0247L76.7308 11.9473Z" fill="#090909"/>
</svg>
